<svg version="1.2" xmlns="http://www.w3.org/2000/svg" viewBox="0 0 22 22" width="22" height="22">
	<title>about-hospital</title>
	<defs>
		<linearGradient id="g1" x2="1" gradientUnits="userSpaceOnUse" gradientTransform="matrix(0,12.976,-15.052,0,11.991,4.411)">
			<stop offset="0" stop-color="#ffad97"/>
			<stop offset="1" stop-color="#ff5b2e"/>
		</linearGradient>
		<linearGradient id="g2" x2="1" gradientUnits="userSpaceOnUse" gradientTransform="matrix(0,3.374,-18.166,0,11.991,1.297)">
			<stop offset="0" stop-color="#ffad97"/>
			<stop offset="1" stop-color="#ff5b2e"/>
		</linearGradient>
		<linearGradient id="g3" x2="1" gradientUnits="userSpaceOnUse" gradientTransform="matrix(0,-2.076,2.076,0,17.701,2.076)">
			<stop offset="0" stop-color="#ffad97"/>
			<stop offset="1" stop-color="#ff5b2e"/>
		</linearGradient>
		<linearGradient id="g4" x2="1" gradientUnits="userSpaceOnUse" gradientTransform="matrix(0,7.024,-7.493,0,4.49,12.976)">
			<stop offset="0" stop-color="#ff9071"/>
			<stop offset="1" stop-color="#ff5b2e"/>
		</linearGradient>
	</defs>
	<style>
		.s0 { fill: url(#g1) } 
		.s1 { fill: url(#g2) } 
		.s2 { fill: url(#g3) } 
		.s3 { fill: #fffaf5 } 
		.s4 { fill: url(#g4) } 
		.s5 { fill: none;stroke: #ffffff;stroke-linecap: round;stroke-linejoin: round;stroke-width: .5 } 
	</style>
	<path fill-rule="evenodd" class="s0" d="m4.5 4.4h15v13h-15z"/>
	<path class="s1" d="m3.9 1.3h16.1l1.1 3.4h-18.2z"/>
	<path fill-rule="evenodd" class="s2" d="m16.7 2.1h2v-2.1h-2z"/>
	<path fill-rule="evenodd" class="s3" d="m6.5 6.2h1.6c0.3 0 0.5 0.3 0.5 0.5v1.6c0 0.3-0.2 0.5-0.5 0.5h-1.6c-0.3 0-0.5-0.2-0.5-0.5v-1.6c0-0.2 0.2-0.5 0.5-0.5z"/>
	<path fill-rule="evenodd" class="s3" d="m6.5 11.4h1.6c0.3 0 0.5 0.2 0.5 0.5v1.6c0 0.3-0.2 0.5-0.5 0.5h-1.6c-0.3 0-0.5-0.2-0.5-0.5v-1.6c0-0.3 0.2-0.5 0.5-0.5z"/>
	<path fill-rule="evenodd" class="s3" d="m11.2 6.2h1.6c0.3 0 0.5 0.3 0.5 0.5v1.6c0 0.3-0.2 0.5-0.5 0.5h-1.6c-0.3 0-0.5-0.2-0.5-0.5v-1.6c0-0.2 0.2-0.5 0.5-0.5z"/>
	<path fill-rule="evenodd" class="s3" d="m11.2 11.4h1.6c0.3 0 0.5 0.2 0.5 0.5v1.6c0 0.3-0.2 0.5-0.5 0.5h-1.6c-0.3 0-0.5-0.2-0.5-0.5v-1.6c0-0.3 0.2-0.5 0.5-0.5z"/>
	<path fill-rule="evenodd" class="s3" d="m15.9 6.2h1.6c0.2 0 0.5 0.3 0.5 0.5v1.6c0 0.3-0.3 0.5-0.5 0.5h-1.6c-0.3 0-0.5-0.2-0.5-0.5v-1.6c0-0.2 0.2-0.5 0.5-0.5z"/>
	<path fill-rule="evenodd" class="s3" d="m15.9 11.4h1.6c0.2 0 0.5 0.2 0.5 0.5v1.6c0 0.3-0.3 0.5-0.5 0.5h-1.6c-0.3 0-0.5-0.2-0.5-0.5v-1.6c0-0.3 0.2-0.5 0.5-0.5z"/>
	<g>
		<path fill-rule="evenodd" class="s4" d="m4.5 13.6c2.1-2.1 7.3 1.6 0 6.4-7.3-4.8-2.1-8.5 0-6.4z"/>
	</g>
	<g>
		<path class="s5" d="m0.1 16.9h1.4l0.6-1.2 1 2.4 0.9-1.8 0.8 0.6 0.8-2.1 1 2.6 0.4-0.5h1.9"/>
	</g>
</svg>